<?xml version="1.0" encoding="UTF-8"?>
<svg xmlns="http://www.w3.org/2000/svg" viewBox="0 0 200 200" width="200" height="200">
  <title>Claqo mascot — wink</title>
  <rect width="200" height="200" rx="44" fill="#D85A30"/>
  <polygon points="28,82 172,82 188,30 42,42" fill="#1A1A1A"/>
  <polygon points="58,82 76,82 86,38 68,42" fill="#FFFFFF"/>
  <polygon points="98,82 116,82 126,34 108,38" fill="#FFFFFF"/>
  <polygon points="138,82 156,82 166,30 148,34" fill="#FFFFFF"/>
  <rect x="28" y="82" width="144" height="98" rx="10" fill="#FAECE7"/>
  <circle cx="74" cy="124" r="14" fill="#1A1A1A"/>
  <path d="M 112 124 Q 126 116 140 124" stroke="#1A1A1A" stroke-width="5" fill="none" stroke-linecap="round"/>
  <circle cx="78" cy="120" r="4" fill="#FFFFFF"/>
  <path d="M 86 158 Q 102 172 116 158" stroke="#1A1A1A" stroke-width="3.5" fill="none" stroke-linecap="round"/>
</svg>
